# xmcd
# Track frame offsets:
# 150
# 12858
# 30061
# 41796
# 54522
# 65701
# 78849
# 90877
# 100981
# 112441
# 123687
# 135690
# 142362
# 158892
# 171689
# 184637
# 195607
# 207757
#
# Disc length: 2950 seconds
# Revision: 0
# Processed by: cddbd v1.5.2PL0 Copyright (c) Steve Scherf et al.
# Submitted via: VisiTrax 2.11.1.266 - For more info visit www.synapsa.com
#
DISCID=040b8412
DTITLE=Bob Wills - Country's Legendary Guitar Genius
DYEAR=1900
DGENRE=Country
TTITLE0=All Night Long
TTITLE1=Don't  Cry Baby
TTITLE2=C Jam Blues
TTITLE3=If He's Moving In, I'm Moving Out
TTITLE4=Let's Get It Over And Done With
TTITLE5=Right or Wrong
TTITLE6=Cotton Eyed Joe
TTITLE7=Honeysuckle Rose
TTITLE8=Linda Lou
TTITLE9=No Disappointments In Heaven
TTITLE10=Roly Poly
TTITLE11=Beaumont Rag
TTITLE12=Oh Monah
TTITLE13=Ida Red
TTITLE14=Faded Love
TTITLE15=I'm Gonna Be Boss From Now On
TTITLE16=Time Changes Everything
TTITLE17=Wills Junction
EXTD=
EXTT0=
EXTT1=
EXTT2=
EXTT3=
EXTT4=
EXTT5=
EXTT6=
EXTT7=
EXTT8=
EXTT9=
EXTT10=
EXTT11=
EXTT12=
EXTT13=
EXTT14=
EXTT15=
EXTT16=
EXTT17=
PLAYORDER=
